<svg width="520" height="520" xmlns="http://www.w3.org/2000/svg" xmlns:xlink="http://www.w3.org/1999/xlink" xml:space="preserve" overflow="hidden"><defs><clipPath id="clip0"><rect x="387" y="359" width="520" height="520"/></clipPath></defs><g clip-path="url(#clip0)" transform="translate(-387 -359)"><path d="M387 415.082C387 384.109 412.109 359 443.082 359L850.918 359C881.891 359 907 384.109 907 415.082L907 822.918C907 853.891 881.891 879 850.918 879L443.082 879C412.109 879 387 853.891 387 822.918Z" fill="#147DC8" fill-rule="evenodd"/><path d="M471 480.963C471 459.997 487.997 443 508.963 443L785.037 443C806.003 443 823 459.997 823 480.963L823 757.037C823 778.003 806.003 795 785.037 795L508.963 795C487.997 795 471 778.003 471 757.037Z" fill="#FFFFFF" fill-rule="evenodd"/><path d="M590 574.403C590 567.553 595.553 562 602.403 562L692.597 562C699.447 562 705 567.553 705 574.403L705 664.597C705 671.447 699.447 677 692.597 677L602.403 677C595.553 677 590 671.447 590 664.597Z" fill-rule="evenodd"/><rect x="471" y="762" width="99" height="117" fill="#FFFFFF"/><rect x="790" y="443" width="117" height="99" fill="#FFFFFF"/></g></svg>